<?xml version="1.0" encoding="UTF-8"?>
<svg id="Capa_1" xmlns="http://www.w3.org/2000/svg" version="1.1" viewBox="0 0 800 800">
  <!-- Generator: Adobe Illustrator 29.7.1, SVG Export Plug-In . SVG Version: 2.1.1 Build 8)  -->
  <defs>
    <style>
      .st0 {
        fill-rule: evenodd;
      }
    </style>
  </defs>
  <path class="st0" d="M176.6,368.2c3.5-30.9,35.9-44.1,55.4-35.8,28.3,11.9,4.4,46.8-15.3,30.1-4.9-4.5-9.1-1.6-9.1,3,0,1,0,1.9,0,3.7,0,2.2,1.8,3.8,5.4,3.8,1.3,0,2.3,0,3.6,0,6.2-.1,10.3,2.7,12.4,6.7,5-2.8,9.6-5,14.9-7.2,4.8-2,8.7-1.8,11.9,0,6.2,3,7,3.4,13.3,1,3.7-1.6,6.9-2.6,10.5-2.6,13.6,0,19,8.5,18.9,17.2,9-10.9,22.4-17.2,36.3-17.2,13.7,0,25.9,6.2,33,16.4,1.1-2.9,3.5-5.6,7-7.5,5.4-2.8,9.3-4.8,15-7.2,4.9-2,9-1.9,12.2-.2,6.3,2.9,9.3,3.1,15.4,1.1,22.2-7.1,43.5,4,43.2,28.4-.2,13.9-.4,18.8-.2,27.8.2,9.3,1.8,12.8,6.8,15.7,1.3.8,2.3,1.7,3.2,2.8-3.9-7.1-6.3-15.8-6.3-26.1,0-30.1,20.2-51.3,47.9-51.3,2.5,0,4.1.2,6.6.7,4.3.7,6.6-.5,6.6-3.2v-.7c0-1.8-1-3.8-3.9-5.2-10.3-4.9-9.2-17.4-.2-22.4,5.3-2.9,10.7-5.6,16-7.8,10.6-4.4,19.8.5,19.8,13.5-.1,34.2-.1,55.7,0,81.4,0,7.1,1.3,10,6.6,12.3,1.3.6,2.4,1.3,3.3,2.2,1.5-2.5,2.5-6,2.6-11.4.1-5.9,0-10-.1-17-.1-6.7-2.1-9.2-6.1-12.2-7.9-5.8-6.3-16,2.6-21.1,5.2-3,9.9-5.2,15.4-7.5,4.8-2,8.7-1.8,11.9,0,6.2,3,7,3.4,13.3,1,3.7-1.6,6.9-2.6,10.5-2.6,31.4,0,19.5,45.3-5.5,34.3-6.4-3-10.4.8-10.5,10.4,0,3.8,0,9.8,0,14.6,0,8.3,1.3,11.7,6.7,13.2,14.8,4.7,12.3,23.5-3,24.4-12.9.8-25.3.8-34.8,0-4.3-.3-7.7-2.3-9.8-5.1-5.3,2.4-10.4,4.4-15.2,5.7-4.8,1.3-8.9,1.1-11.9-.6-4.3-2.4-7.6-2.5-12.6-.7-4.4,1.8-8.7,2.9-14.3,2.9-12.8,0-26.2-6.8-34.3-19.5,3.1,7-1.7,16.5-11.9,17.2-9.4.6-20.4.6-30,0-4.7-.3-8.2-2.5-10.4-5.4-2.2,2.9-5.6,5-10.3,5.3-10,.6-20.2.6-30.2,0-7.5-.5-12-5.7-12.6-11.1-9.6,10.6-22.9,13.4-32.7,13.4-27,0-46.4-20.3-46.4-49.2s.9-11.3,2.4-16.3c-4.1,2.5-9.3,3.1-15.4.4-6.4-3-10.4.8-10.5,10.4,0,3.8,0,9.8,0,14.6,0,8.3,1.3,11.7,6.7,13.2,14.8,4.7,12.3,23.5-3,24.4-12.9.8-25.3.8-34.8,0-4.8-.4-8.3-2.8-10.4-5.9-2.1,3.2-5.7,5.7-10.9,5.9-12.5.6-22.9.6-35,0-12.3-.7-16.7-15.8-7.3-22.1,5.6-3.6,6.9-5.4,7-16.8.1-10.2.2-17.2,0-23.2-.1-4.8-1.2-6.4-3.2-7.2l-1.7-.5c-9-3.5-9.6-17.3-.5-22.1,4.4-2.2,5.5-3.8,6-7.5ZM223.3,398.5c-1.8.8-4,1.3-6.5,1.3-1.9,0-2.7,0-4.1,0-3.1-.1-4.9,2.1-5,6.5-.2,4.7-.2,10.1,0,21.8.1,10.1,1.3,12.3,10.4,16.6,1.9.9,3.3,2.3,4.3,3.8.8-1.1,1.9-2.1,3.2-2.9,3.8-2.3,6.4-6,6.7-15.4.1-5.9,0-10-.1-17-.1-6.7-2.1-9.2-6.1-12.2-1-.8-1.9-1.6-2.6-2.5ZM428.9,406.1c-.2-7.6-6.7-11-12.7-7.9-3.5,1.7-6.1,5.7-6.2,12.3-.1,8.7-.1,15.3,0,19.1.4,10.6,2.2,12.7,7.2,16.1.9.6,1.6,1.3,2.3,2.1.9-1.2,2.1-2.2,3.7-3.1,3.8-2,5.5-4.6,5.8-15.5.1-5.1.1-14.9,0-23.1ZM373.9,402.5c.4,2.3.6,4.6.5,7,0,8.2-5.2,14.1-14.8,14.1h-28.7c-6.6,0-9.1,3.1-7.7,7.7,1.6,7,7.8,10.5,15.1,10.5s9.7-1.5,14.6-6.6c8.8-9.1,22.2-1.6,20.4,9.2,3.3-2.8,4.7-6.7,4.9-14,.1-6.1-.1-12.7-.1-16.9,0-6.4-1.1-8.2-4.2-10.8ZM512.7,394.8c-9.1,0-15.1,7.6-15.1,22.6s6.2,25.8,15.7,25.8,11.8-4.8,11.8-14.4v-21.5c0-7.8-5.3-12.6-12.4-12.6ZM332.5,394.7c-3.9,0-6.6,1.4-7.2,3.1-.5,1.5,1.6,2.2,5.7,2.2h1.7c4.4,0,6.6-.6,6.4-2.3-.1-1.6-2.6-2.9-6.6-2.9Z"/>
</svg>